<svg xmlns="http://www.w3.org/2000/svg" xmlns:xlink="http://www.w3.org/1999/xlink" version="1.1" x="0px" y="0px" viewBox="0 0 100 125" enable-background="new 0 0 100 100" xml:space="preserve"><path d="M50,5C25.147,5,5,25.147,5,50s20.147,45,45,45c24.854,0,45-20.147,45-45S74.854,5,50,5z M50,92.104  C26.747,92.104,7.897,73.253,7.897,50S26.747,7.897,50,7.897S92.104,26.747,92.104,50S73.253,92.104,50,92.104z M50,9.684  C27.734,9.684,9.684,27.734,9.684,50c0,22.266,18.05,40.316,40.316,40.316c22.267,0,40.316-18.051,40.316-40.316  C90.316,27.734,72.267,9.684,50,9.684z M85.855,36.969c0.689-0.223,1.431,0.154,1.654,0.844c0.225,0.688-0.153,1.429-0.843,1.654  c-0.689,0.223-1.43-0.154-1.654-0.843S85.166,37.193,85.855,36.969z M80.073,26.526c0.588-0.425,1.408-0.295,1.835,0.292  c0.426,0.585,0.296,1.407-0.291,1.833c-0.587,0.426-1.407,0.296-1.834-0.291C79.357,27.774,79.487,26.953,80.073,26.526z   M71.349,18.382c0.426-0.586,1.247-0.716,1.834-0.29c0.586,0.425,0.716,1.246,0.291,1.833c-0.427,0.586-1.248,0.716-1.835,0.29  C71.053,19.79,70.922,18.969,71.349,18.382z M60.533,13.333c0.225-0.689,0.965-1.066,1.654-0.842  c0.689,0.224,1.066,0.964,0.843,1.654s-0.965,1.067-1.654,0.843C60.687,14.763,60.31,14.022,60.533,13.333z M53.236,31.608  l0.135-10.604c0,0,0.01-1.407,0.812-2.406c0.509-0.633,0.979-2.482,1.314-4.117c0.312-1.521,0.509-2.858,0.509-2.858l0.877,3.101  c10.563,2.049,19.474,8.723,24.541,17.83l3.221-0.124c0,0-1.21,0.599-2.56,1.366c-1.452,0.825-3.066,1.844-3.512,2.523  c-0.702,1.072-2.037,1.516-2.037,1.516L66.51,41.233l-2.912,0.987c-4.957,0.786-9.613-2.597-10.397-7.555  c-0.001-0.006-0.002-0.013-0.003-0.019L53.236,31.608z M44.3,55.533c1.209,0,2.188,0.98,2.188,2.188  c0,1.209-0.979,2.188-2.188,2.188c-1.208,0-2.188-0.979-2.188-2.188C42.112,56.514,43.092,55.533,44.3,55.533z M40.778,49.069  c-1.208,0-2.188-0.98-2.188-2.188c0-1.209,0.98-2.188,2.188-2.188s2.188,0.979,2.188,2.188  C42.966,48.089,41.986,49.069,40.778,49.069z M44.951,49.69c0-2.789,2.261-5.049,5.049-5.049s5.048,2.261,5.048,5.049  c0,2.788-2.26,5.049-5.048,5.049S44.951,52.479,44.951,49.69z M55.7,55.533c1.208,0,2.188,0.98,2.188,2.188  c0,1.209-0.98,2.188-2.188,2.188c-1.209,0-2.188-0.979-2.188-2.188C53.512,56.514,54.491,55.533,55.7,55.533z M57.034,46.88  c0-1.208,0.98-2.188,2.188-2.188c1.209,0,2.188,0.98,2.188,2.188s-0.979,2.188-2.188,2.188  C58.015,49.068,57.034,48.089,57.034,46.88z M50,10.56c0.725,0,1.313,0.587,1.313,1.312S50.725,13.186,50,13.186  s-1.312-0.588-1.312-1.313S49.275,10.56,50,10.56z M50,37.991c1.209,0,2.188,0.98,2.188,2.188S51.209,42.368,50,42.368  c-1.208,0-2.188-0.98-2.188-2.188S48.792,37.991,50,37.991z M37.812,12.49c0.69-0.224,1.43,0.153,1.654,0.843  c0.224,0.689-0.153,1.43-0.843,1.654c-0.689,0.224-1.43-0.153-1.654-0.843C36.746,13.455,37.123,12.714,37.812,12.49z   M26.818,18.092c0.586-0.426,1.408-0.296,1.833,0.29c0.426,0.587,0.296,1.408-0.29,1.834c-0.587,0.426-1.408,0.296-1.833-0.29  C26.102,19.339,26.231,18.519,26.818,18.092z M18.092,26.818c0.426-0.586,1.248-0.717,1.834-0.291  c0.586,0.427,0.717,1.248,0.291,1.834c-0.426,0.587-1.247,0.717-1.833,0.291C17.796,28.225,17.667,27.404,18.092,26.818z   M18.577,32.553c5.067-9.107,13.978-15.781,24.541-17.83l0.877-3.101c0,0,0.196,1.336,0.508,2.857  c0.336,1.636,0.807,3.485,1.315,4.118c0.802,0.999,0.812,2.406,0.812,2.406l0.134,10.584l0.039,3.076  c-0.786,4.958-5.44,8.34-10.398,7.555l0,0c-0.005-0.001-0.011-0.002-0.016-0.003l-2.881-0.977l-10.043-3.405  c0,0-1.335-0.444-2.038-1.516c-0.445-0.68-2.059-1.699-3.511-2.524c-1.35-0.767-2.56-1.366-2.56-1.366L18.577,32.553z M12.49,37.812  c0.224-0.689,0.965-1.066,1.654-0.843c0.69,0.224,1.067,0.965,0.843,1.654c-0.224,0.69-0.964,1.067-1.654,0.843  S12.266,38.502,12.49,37.812z M10.56,50c0-0.725,0.587-1.313,1.312-1.313c0.725,0,1.313,0.588,1.313,1.313  c0,0.726-0.587,1.313-1.312,1.313S10.56,50.725,10.56,50z M14.145,63.03c-0.689,0.225-1.43-0.153-1.654-0.843  s0.154-1.43,0.843-1.654c0.689-0.224,1.43,0.153,1.654,0.843C15.212,62.065,14.834,62.807,14.145,63.03z M19.926,73.473  c-0.586,0.426-1.407,0.296-1.833-0.291c-0.427-0.586-0.296-1.407,0.291-1.833c0.585-0.427,1.407-0.297,1.833,0.29  C20.643,72.226,20.513,73.047,19.926,73.473z M28.651,81.617c-0.426,0.587-1.247,0.717-1.833,0.29  c-0.587-0.426-0.716-1.247-0.291-1.834c0.426-0.586,1.247-0.717,1.833-0.289C28.948,80.209,29.078,81.03,28.651,81.617z   M28.159,72.947c-0.782,0.213-2.248,1.43-3.479,2.554c-1.149,1.049-2.096,2.018-2.096,2.018l1.116-3.031  C17.721,68.069,14.062,59.463,14.062,50c0-1.474,0.091-2.926,0.263-4.354l-2.68-1.794c0,0,1.333,0.227,2.876,0.4  c1.659,0.186,3.562,0.31,4.321,0.022c1.198-0.455,2.539-0.029,2.539-0.029l10.108,3.144l2.937,0.913  c4.472,2.279,6.25,7.751,3.972,12.224c-0.003,0.005-0.006,0.01-0.008,0.016l-1.818,2.437l-6.342,8.5  C30.23,71.478,29.395,72.61,28.159,72.947z M39.466,86.667c-0.224,0.689-0.964,1.066-1.654,0.842  c-0.689-0.223-1.067-0.964-0.843-1.654c0.224-0.688,0.964-1.066,1.654-0.842C39.313,85.236,39.691,85.977,39.466,86.667z M50,89.44  c-0.725,0-1.312-0.588-1.312-1.313c0-0.725,0.587-1.312,1.312-1.312s1.313,0.588,1.313,1.312C51.313,88.853,50.725,89.44,50,89.44z   M62.188,87.51c-0.689,0.225-1.43-0.153-1.653-0.843c-0.225-0.689,0.152-1.431,0.843-1.654c0.689-0.224,1.43,0.153,1.653,0.843  C63.255,86.545,62.878,87.285,62.188,87.51z M65.169,82.587C60.56,84.736,55.421,85.938,50,85.938s-10.56-1.202-15.168-3.352  l-2.531,1.991c0,0,0.626-1.195,1.268-2.608c0.69-1.521,1.397-3.295,1.357-4.106c-0.062-1.28,0.757-2.424,0.757-2.424l6.113-8.643  l1.776-2.51c3.549-3.55,9.304-3.55,12.853,0c0.005,0.004,0.009,0.008,0.013,0.013l1.756,2.481l6.124,8.658  c0,0,0.818,1.144,0.757,2.424c-0.039,0.812,0.668,2.585,1.357,4.106c0.642,1.413,1.269,2.608,1.269,2.608L65.169,82.587z   M73.183,81.907c-0.587,0.427-1.407,0.297-1.833-0.29c-0.427-0.587-0.297-1.407,0.289-1.833c0.587-0.427,1.408-0.297,1.834,0.29  C73.899,80.66,73.77,81.481,73.183,81.907z M77.416,77.519c0,0-0.946-0.969-2.095-2.018c-1.232-1.124-2.697-2.341-3.479-2.554  c-1.236-0.337-2.071-1.47-2.071-1.47l-6.33-8.484l-1.839-2.465c-2.279-4.473-0.501-9.945,3.972-12.224l0,0  c0.006-0.002,0.011-0.005,0.017-0.008l2.901-0.902l10.128-3.149c0,0,1.341-0.426,2.539,0.029c0.759,0.288,2.662,0.164,4.32-0.022  c1.545-0.173,2.877-0.4,2.877-0.4l-2.68,1.794c0.172,1.427,0.263,2.88,0.263,4.354c0,9.463-3.659,18.069-9.637,24.487L77.416,77.519  z M81.908,73.183c-0.427,0.586-1.247,0.716-1.834,0.29c-0.587-0.427-0.717-1.247-0.29-1.833c0.426-0.588,1.247-0.718,1.833-0.291  C82.204,71.774,82.334,72.596,81.908,73.183z M87.51,62.188c-0.224,0.689-0.964,1.066-1.654,0.843  c-0.689-0.225-1.066-0.964-0.843-1.654c0.225-0.689,0.965-1.066,1.654-0.843C87.356,60.758,87.734,61.498,87.51,62.188z   M88.128,51.312c-0.726,0-1.312-0.588-1.313-1.312c0-0.725,0.588-1.313,1.313-1.313c0.725,0,1.312,0.588,1.312,1.313  C89.44,50.725,88.853,51.312,88.128,51.312z M50,53.78c-2.259,0-4.09-1.831-4.09-4.09s1.831-4.09,4.09-4.09  c2.258,0,4.089,1.831,4.089,4.09S52.259,53.78,50,53.78z"/><text x="0" y="115" fill="#000000" font-size="5px" font-weight="bold" font-family="'Helvetica Neue', Helvetica, Arial-Unicode, Arial, Sans-serif">Created by Andrea Severgnini</text><text x="0" y="120" fill="#000000" font-size="5px" font-weight="bold" font-family="'Helvetica Neue', Helvetica, Arial-Unicode, Arial, Sans-serif">from the Noun Project</text></svg>